# xmcd CD database file
#
# Track frame offsets:
#	150
#	13258
#	32497
#	48470
#	60906
#	67379
#	90809
#	110356
#	130333
#	159167
#	181597
#	198375
#	208986
#
# Disc length: 3245 seconds
#
# Revision: 0
# Processed by: cddbd v1.5PL3 Copyright (c) Steve Scherf et al.
# Submitted via: CDex 1.51
#
DISCID=a90cab0d
DTITLE=ballboy - a guide for the daylight hours
DYEAR=2003
DGENRE=Rock and Roll
TTITLE0=avant garde music
TTITLE1=where do the nights of sleep go to when they do not come to me
TTITLE2=you can't spend your whole life hanging around with arseholes
TTITLE3=i wonder if you're drunk enough to sleep with me tonight
TTITLE4=i lost you, but i found country music
TTITLE5=a europewide search for love
TTITLE6=something's going to happen soon
TTITLE7=nobody really knows anything
TTITLE8=sex is boring
TTITLE9=meet me at the shooting range
TTITLE10=all the records on the radio are shite
TTITLE11=a night at the bullet
TTITLE12=leave them behind you and take a walk into the sunshine (live version)
EXTD=YEAR: 2003
EXTT0=
EXTT1=
EXTT2=
EXTT3=
EXTT4=
EXTT5=
EXTT6=
EXTT7=
EXTT8=
EXTT9=
EXTT10=
EXTT11=
EXTT12=
PLAYORDER=
